<svg width="106" height="87" viewBox="0 0 106 87" fill="none" xmlns="http://www.w3.org/2000/svg">
<path fill-rule="evenodd" clip-rule="evenodd" d="M83.2874 18.5557C81.7049 18.5557 80.1244 18.7248 78.5793 19.0573C73.6395 7.6264 62.1146 0 49.6434 0C34.0818 0 21.1414 10.9565 18.5635 26.1724C18.5282 26.1724 18.4909 26.1724 18.4555 26.1724C8.27946 26.1724 0 34.4481 0 44.6192C0 54.7903 8.27946 63.0641 18.4555 63.0641H83.2874C95.5603 63.0641 105.546 53.0796 105.546 40.8089C105.546 28.5383 95.5603 18.5557 83.2874 18.5557ZM101.069 40.8089C101.069 50.6224 93.0943 58.6045 83.2874 58.6045H18.4555C10.7474 58.6045 4.47643 52.3311 4.47643 44.6192C4.47643 36.9053 10.7474 30.63 18.4555 30.63C18.9699 30.63 19.5314 30.6708 20.2225 30.7544L22.498 31.0383L22.7258 28.7676C24.1316 14.9087 35.7036 4.45764 49.6434 4.45764C61.0485 4.45764 71.2834 11.6952 75.1139 22.469L75.8384 24.5025L77.9019 23.8473C79.6532 23.2952 81.4654 23.0153 83.2874 23.0153C93.0943 23.0153 101.069 30.9974 101.069 40.8089Z" fill="white"/>
<path fill-rule="evenodd" clip-rule="evenodd" d="M18.7677 75.3367C20.6525 78.7446 22.5373 82.1505 24.4241 85.5584C25.7356 87.9301 29.3992 85.813 28.0858 83.4394C26.2009 80.0315 24.3161 76.6236 22.4293 73.2158C21.1178 70.8441 17.4542 72.9611 18.7677 75.3367Z" fill="white"/>
<path fill-rule="evenodd" clip-rule="evenodd" d="M39.7814 75.3367C41.6663 78.7446 43.5511 82.1505 45.4359 85.5584C46.7494 87.9301 50.413 85.813 49.0995 83.4394C47.2147 80.0315 45.3299 76.6236 43.4431 73.2158C42.1316 70.8441 38.466 72.9611 39.7814 75.3367Z" fill="white"/>
<path fill-rule="evenodd" clip-rule="evenodd" d="M61.8672 75.3367C63.754 78.7446 65.6388 82.1505 67.5237 85.5584C68.8352 87.9301 72.5008 85.813 71.1873 83.4394C69.3025 80.0315 67.4157 76.6236 65.5309 73.2158C64.2193 70.8441 60.5538 72.9611 61.8672 75.3367Z" fill="white"/>
<path fill-rule="evenodd" clip-rule="evenodd" d="M83.2128 75.3367C85.0976 78.7446 86.9844 82.1505 88.8692 85.5584C90.1807 87.9301 93.8463 85.813 92.5328 83.4394C90.6461 80.0315 88.7612 76.6236 86.8764 73.2158C85.5629 70.8441 81.8993 72.9611 83.2128 75.3367Z" fill="white"/>
</svg>
