<svg width="25" height="26" viewBox="0 0 25 26" fill="none" xmlns="http://www.w3.org/2000/svg">
<path d="M24.1121 3.94863C23.5749 3.89966 23.0999 4.29541 23.0509 4.83252L22.9215 6.25192C20.7262 2.80434 16.9155 0.499939 12.5 0.499939C7.74992 0.499939 3.56382 3.21099 1.48579 7.27995C1.24048 7.76027 1.431 8.34851 1.91133 8.59382C2.39175 8.83913 2.97989 8.64865 3.2252 8.16828C4.98385 4.72471 8.51545 2.45307 12.5 2.45307C16.1317 2.45307 19.4091 4.34424 21.2868 7.307L19.8944 6.31251C19.4554 5.99908 18.8455 6.10074 18.5321 6.53961C18.2187 6.97853 18.3203 7.5884 18.7592 7.90187L22.9816 10.9176C23.6005 11.3587 24.454 10.9549 24.5217 10.2116L24.9959 5.00987C25.0449 4.47271 24.6492 3.99761 24.1121 3.94863Z" fill="white"/>
<path d="M23.0887 17.4062C22.6083 17.1609 22.0202 17.3514 21.7748 17.8317C20.0162 21.2753 16.4846 23.5469 12.5001 23.5469C8.86835 23.5469 5.5909 21.6557 3.71325 18.693L5.10569 19.6875C5.54461 20.0009 6.15447 19.8992 6.46795 19.4604C6.78138 19.0214 6.67972 18.4116 6.24085 18.0981L2.01842 15.0824C1.40714 14.6457 0.54669 15.0374 0.47833 15.7884L0.00415811 20.9901C-0.0448167 21.5272 0.350937 22.0023 0.887999 22.0513C1.42579 22.1002 1.90026 21.704 1.94919 21.1674L2.07858 19.748C4.2738 23.1956 8.08456 25.5 12.5001 25.5C17.2501 25.5 21.4362 22.789 23.5143 18.72C23.7596 18.2397 23.569 17.6515 23.0887 17.4062Z" fill="white"/>
</svg>
