<svg width="20" height="20" viewBox="0 0 20 20" fill="none" xmlns="http://www.w3.org/2000/svg">
<path d="M19.7558 18.5775L14.0683 12.89C15.17 11.5292 15.8333 9.8 15.8333 7.91668C15.8333 3.55168 12.2816 0 7.91664 0C3.55164 0 0 3.55164 0 7.91664C0 12.2816 3.55168 15.8333 7.91668 15.8333C9.8 15.8333 11.5292 15.17 12.89 14.0683L18.5775 19.7558C18.74 19.9183 18.9533 20 19.1667 20C19.38 20 19.5934 19.9183 19.7559 19.7558C20.0817 19.43 20.0817 18.9033 19.7558 18.5775ZM7.91668 14.1666C4.47 14.1666 1.66668 11.3633 1.66668 7.91664C1.66668 4.46996 4.47 1.66664 7.91668 1.66664C11.3634 1.66664 14.1667 4.46996 14.1667 7.91664C14.1667 11.3633 11.3633 14.1666 7.91668 14.1666Z" fill="white"/>
</svg>
