<svg width="19" height="20" viewBox="0 0 19 20" fill="none" xmlns="http://www.w3.org/2000/svg">
<path fill-rule="evenodd" clip-rule="evenodd" d="M14.4927 3.24413C14.2173 3.24413 13.9423 3.27335 13.6734 3.3318C12.8139 1.3332 10.8084 0 8.63835 0C5.93052 0 3.67843 1.91569 3.2302 4.57562C3.22371 4.57562 3.21756 4.57562 3.21107 4.57562C1.44069 4.57562 0 6.02233 0 7.80038C0 9.57809 1.44069 11.0245 3.21107 11.0245H14.4927C16.6283 11.0245 18.3659 9.27937 18.3659 7.13429C18.3659 4.98921 16.6283 3.24413 14.4927 3.24413ZM17.5869 7.13429C17.5869 8.84981 16.1988 10.2452 14.4927 10.2452H3.21106C1.87012 10.2452 0.778929 9.14853 0.778929 7.80038C0.778929 6.45189 1.87012 5.35488 3.21106 5.35488C3.30057 5.35488 3.39862 5.36167 3.51888 5.37663L3.91484 5.4259L3.95447 5.02897C4.19908 2.60658 6.2127 0.779595 8.63834 0.779595C10.6226 0.779595 12.4039 2.04482 13.0704 3.92822L13.1965 4.2837L13.5556 4.16917C13.8603 4.07232 14.1753 4.02338 14.4927 4.02338C16.1988 4.02338 17.5869 5.41877 17.5869 7.13429Z" fill="white"/>
<path fill-rule="evenodd" clip-rule="evenodd" d="M3.26573 13.1699C3.59371 13.7656 3.92168 14.3614 4.24965 14.9571C4.47821 15.3717 5.11571 15.0016 4.88715 14.5863C4.55918 13.9906 4.23086 13.3952 3.90289 12.7994C3.67467 12.3848 3.03683 12.7549 3.26573 13.1699Z" fill="white"/>
<path fill-rule="evenodd" clip-rule="evenodd" d="M14.4797 13.1699C14.8077 13.7656 15.1357 14.3614 15.464 14.9571C15.6922 15.3717 16.3297 15.0016 16.1012 14.5863C15.7732 13.9906 15.4452 13.3952 15.1169 12.7994C14.8887 12.3848 14.2512 12.7549 14.4797 13.1699Z" fill="white"/>
<path fill-rule="evenodd" clip-rule="evenodd" d="M13.6557 15.1321C13.984 15.7279 14.312 16.3236 14.6399 16.919C14.8685 17.3336 15.506 16.9635 15.2774 16.5486C14.9495 15.9528 14.6215 15.3571 14.2932 14.7617C14.065 14.3471 13.4271 14.7172 13.6557 15.1321Z" fill="white"/>
<path fill-rule="evenodd" clip-rule="evenodd" d="M0.691444 12.9038C1.01976 13.4992 1.34773 14.0949 1.67571 14.6907C1.90426 15.1053 2.54176 14.7352 2.31321 14.3199C1.98523 13.7245 1.65692 13.1288 1.32894 12.533C1.10073 12.1184 0.462888 12.4885 0.691444 12.9038Z" fill="white"/>
<path fill-rule="evenodd" clip-rule="evenodd" d="M3.26573 15.6905C3.59371 16.2859 3.92168 16.8816 4.24965 17.4773C4.47821 17.892 5.11571 17.5219 4.88715 17.1066C4.55918 16.5112 4.23086 15.9154 3.90289 15.3197C3.67467 14.9051 3.03683 15.2752 3.26573 15.6905Z" fill="white"/>
<path fill-rule="evenodd" clip-rule="evenodd" d="M10.3872 10.9878L10.3086 11.0245H10.4046L10.3872 10.9878Z" fill="white"/>
<path fill-rule="evenodd" clip-rule="evenodd" d="M6.82595 10.9551L6.71594 11.0245H6.87036L6.82595 10.9551Z" fill="white"/>
<path fill-rule="evenodd" clip-rule="evenodd" d="M11.943 15.6667H10.7545C10.597 15.6667 10.4508 15.7445 10.3633 15.875C10.2758 16.0055 10.2598 16.17 10.3206 16.3151L11.4364 18.9703L6.8919 14.1765H8.02955C8.20106 14.1765 8.35889 14.0834 8.44157 13.9339C8.52425 13.784 8.51844 13.6015 8.4262 13.4574L7.3022 11.7001H6.60253L7.81022 13.5889H6.61346C6.42522 13.5889 6.25576 13.6997 6.18129 13.8713C6.10715 14.0429 6.14234 14.2417 6.27114 14.3777L11.46 19.8512C11.5529 19.9494 11.6755 20 11.8002 20C11.8887 20 11.9779 19.9745 12.0578 19.9229C12.2519 19.7978 12.3253 19.5623 12.2362 19.3499L10.9352 16.2539H12.1326C12.2946 16.2539 12.4432 16.1727 12.53 16.0368C12.6164 15.9005 12.627 15.7323 12.5583 15.5875L10.7234 11.7001H10.0708L11.943 15.6667Z" fill="white"/>
</svg>
