<svg width="76" height="76" viewBox="0 0 76 76" fill="none" xmlns="http://www.w3.org/2000/svg">
<path fill-rule="evenodd" clip-rule="evenodd" d="M62.9506 62.8615L52.0325 52.7978C51.355 52.174 51.321 51.1179 51.9597 50.4529C52.5985 49.7895 53.677 49.7578 54.3562 50.3832L65.2743 60.4453C65.9518 61.0707 65.9842 62.1252 65.3454 62.7902C64.7083 63.4552 63.6298 63.4869 62.9506 62.8615Z" fill="#FFFFFE"/>
<path fill-rule="evenodd" clip-rule="evenodd" d="M21.2381 24.6652L10.3199 14.6031C9.6408 13.9777 9.60846 12.9232 10.2472 12.2582C10.8859 11.5932 11.9628 11.5615 12.642 12.1869L23.5601 22.2506C24.2393 22.876 24.2716 23.9305 23.6329 24.5955C22.9942 25.2589 21.9156 25.2906 21.2381 24.6652Z" fill="#FFFFFE"/>
<path fill-rule="evenodd" clip-rule="evenodd" d="M12.511 62.7364L22.5317 51.8146C23.1542 51.1369 24.2312 51.0799 24.9249 51.6895C25.6186 52.2991 25.6752 53.3536 25.0526 54.0328L15.0319 64.9547C14.4094 65.6323 13.3325 65.6893 12.6404 65.0797C11.9467 64.4702 11.8885 63.4157 12.511 62.7364Z" fill="#FFFFFE"/>
<path fill-rule="evenodd" clip-rule="evenodd" d="M50.54 21.0156L60.5607 10.0938C61.1832 9.41609 62.2601 9.35909 62.9539 9.96867C63.6459 10.5783 63.7041 11.6328 63.0816 12.312L53.0609 23.2338C52.4384 23.9115 51.3614 23.9685 50.6677 23.3589C49.9756 22.7493 49.9174 21.6948 50.54 21.0156Z" fill="#FFFFFE"/>
<path fill-rule="evenodd" clip-rule="evenodd" d="M36.8277 72.9568L36.6563 58.2762C36.6466 57.3642 37.4002 56.6089 38.3316 56.5994C39.263 56.5883 40.0343 57.3262 40.0456 58.2382L40.217 72.9188C40.2267 73.8324 39.4732 74.5861 38.5418 74.5972C37.6104 74.6082 36.8391 73.8704 36.8277 72.9568Z" fill="#FFFFFE"/>
<path fill-rule="evenodd" clip-rule="evenodd" d="M35.9901 17.043L35.8187 2.36234C35.8074 1.44876 36.5609 0.69509 37.4923 0.684007C38.4238 0.672924 39.1951 1.41076 39.2064 2.32434L39.3778 17.005C39.3891 17.917 38.634 18.6723 37.7026 18.6818C36.7712 18.6928 35.9998 17.955 35.9901 17.043Z" fill="#FFFFFE"/>
<path fill-rule="evenodd" clip-rule="evenodd" d="M1.96952 35.9591L16.9642 36.0066C17.8956 36.0098 18.6556 36.7587 18.6523 37.6707C18.6507 38.5827 17.8859 39.3268 16.9528 39.3237L1.95982 39.2778C1.0268 39.2746 0.266796 38.5257 0.27003 37.6137C0.273264 36.7001 1.03811 35.9559 1.96952 35.9591Z" fill="#FFFFFE"/>
<path fill-rule="evenodd" clip-rule="evenodd" d="M59.0811 35.9575L74.0757 36.0034C75.0071 36.0066 75.7671 36.7555 75.7639 37.6675C75.7607 38.5811 74.9958 39.3252 74.0644 39.3221L59.0698 39.2746C58.1384 39.2714 57.3784 38.5225 57.3816 37.6105C57.3848 36.6985 58.1497 35.9543 59.0811 35.9575Z" fill="#FFFFFE"/>
<path fill-rule="evenodd" clip-rule="evenodd" d="M37.5974 22.2585C28.9366 22.2585 21.8896 29.1587 21.8896 37.639C21.8896 46.1209 28.9366 53.0211 37.5974 53.0211C46.2598 53.0211 53.3068 46.1209 53.3068 37.639C53.3068 29.1587 46.2598 22.2585 37.5974 22.2585ZM50.097 37.639C50.097 44.3872 44.4891 49.8782 37.5974 49.8782C30.7056 49.8782 25.0994 44.3872 25.0994 37.639C25.0994 30.8908 30.7056 25.3998 37.5974 25.3998C44.4891 25.3998 50.097 30.8908 50.097 37.639Z" fill="#FFFFFE"/>
</svg>
