<svg width="100" height="100" viewBox="0 0 100 100" fill="none" xmlns="http://www.w3.org/2000/svg">
<rect opacity="0.0229128" x="0.5" y="0.5" width="99" height="99" stroke="#2B2B2B"/>
<path fill-rule="evenodd" clip-rule="evenodd" d="M82.7017 54.7437C81.6796 54.7437 80.6592 54.8528 79.6617 55.0693C76.471 47.6591 69.0282 42.7151 60.9745 42.7151C50.9242 42.7151 42.5674 49.8177 40.9033 59.6812C40.8804 59.6812 40.8574 59.6812 40.8329 59.6812C34.2615 59.6812 28.9153 65.0451 28.9153 71.6398C28.9153 78.2312 34.2615 83.5935 40.8329 83.5935H82.7017C90.6276 83.5935 97.0761 77.1226 97.0761 69.1686C97.0761 61.2147 90.6276 54.7437 82.7017 54.7437ZM94.1852 69.1686C94.1852 75.5288 89.0339 80.704 82.7017 80.704H40.8329C35.8552 80.704 31.8062 76.6374 31.8062 71.6398C31.8062 66.6388 35.8552 62.5707 40.8329 62.5707C41.1654 62.5707 41.529 62.5967 41.9761 62.6521L43.4454 62.8344L43.5928 61.3628C44.4986 52.38 51.9724 45.6063 60.9745 45.6063C68.3386 45.6063 74.9493 50.2963 77.4243 57.28L77.8911 58.5986L79.2227 58.1737C80.3545 57.8156 81.524 57.6349 82.7017 57.6349C89.0339 57.6349 94.1852 62.8084 94.1852 69.1686Z" fill="white"/>
<path fill-rule="evenodd" clip-rule="evenodd" d="M23.7559 36.2816C24.3275 36.9198 25.3201 36.9784 25.9621 36.4119C26.6059 35.8437 26.6648 34.8572 26.0932 34.2191L16.9093 23.9388C16.3393 23.3007 15.3467 23.2421 14.703 23.8102C14.0609 24.3767 14.002 25.3633 14.572 26.003L23.7559 36.2816Z" fill="white"/>
<path fill-rule="evenodd" clip-rule="evenodd" d="M22.6584 61.7046L12.5327 71.0684C11.9037 71.6512 11.8677 72.6377 12.4524 73.2644C13.0388 73.8895 14.033 73.9253 14.662 73.3426L24.7877 63.9788C25.4167 63.3977 25.4527 62.4095 24.8679 61.7844C24.2816 61.1593 23.2873 61.1235 22.6584 61.7046Z" fill="white"/>
<path fill-rule="evenodd" clip-rule="evenodd" d="M63.3201 25.9949C62.7337 25.3698 61.7395 25.3339 61.1105 25.9151L50.9848 35.2788C50.3559 35.8616 50.3198 36.8481 50.9062 37.4749C51.491 38.1 52.4852 38.1358 53.1142 37.553L63.2398 28.1893C63.8688 27.6081 63.9048 26.62 63.3201 25.9949Z" fill="white"/>
<path fill-rule="evenodd" clip-rule="evenodd" d="M39.3883 32.0507C40.2449 32.1174 41 31.4744 41.0672 30.623L42.1466 16.9193C42.2137 16.0679 41.5667 15.3158 40.7101 15.2491C39.8535 15.1823 39.0967 15.8253 39.0296 16.6767L37.9518 30.3805C37.8847 31.2335 38.53 31.984 39.3883 32.0507Z" fill="white"/>
<path fill-rule="evenodd" clip-rule="evenodd" d="M20.2866 48.1963C20.3652 47.3465 19.7297 46.5863 18.8747 46.5065L5.10301 45.2335C4.24637 45.1554 3.48146 45.7854 3.40284 46.6368C3.32258 47.4881 3.95809 48.2484 4.81309 48.3265L18.5848 49.5995C19.4415 49.6793 20.2064 49.0477 20.2866 48.1963Z" fill="white"/>
<path fill-rule="evenodd" clip-rule="evenodd" d="M26.2112 48.696C26.7795 42.4026 32.3927 37.7419 38.725 38.3067C41.9238 38.5932 44.7001 40.1593 46.5936 42.4498C47.2832 41.7758 48.035 41.1344 48.8507 40.5451C46.4707 37.6865 42.9918 35.733 38.9887 35.3765C31.0316 34.6667 23.977 40.5239 23.2629 48.4323C22.801 53.5439 25.1072 58.2681 28.9383 61.1707C29.3707 60.4316 29.9538 59.6242 30.7286 58.833C27.6804 56.523 25.8443 52.7626 26.2112 48.696Z" fill="white"/>
</svg>
