<svg width="100" height="100" viewBox="0 0 100 100" fill="none" xmlns="http://www.w3.org/2000/svg">
<g clip-path="url(#clip0)">
<rect opacity="0.0229128" x="-0.5" y="0.5" width="97.0392" height="99" transform="matrix(-1 0 0 1 99 0)" stroke="#2B2B2B"/>
</g>
<g clip-path="url(#clip1)">
<path fill-rule="evenodd" clip-rule="evenodd" d="M68.8853 77.0895C71.4975 77.2012 74.1699 77.0117 76.915 76.4273C82.2218 75.2988 86.5054 72.2679 90.2072 68.3126C90.7528 67.7297 91.2714 67.121 91.8628 66.4539C79.2047 67.8188 68.6449 63.9007 61.0627 53.44C53.5247 43.0441 52.7009 31.5958 57.4653 19.6197C57.3973 19.6327 57.3151 19.6311 57.2502 19.6635C49.9005 23.4326 44.4292 28.9746 41.7458 36.9856C40.8824 36.7282 39.9431 36.5015 38.9928 36.3655C39.0861 36.0806 39.1652 35.7973 39.2648 35.5123C42.8669 25.2589 50.4808 18.9575 60.2294 15.1463C60.8824 14.8921 61.5039 14.9925 61.964 15.5673C62.4242 16.1372 62.4115 16.7621 62.0336 17.3838C61.9245 17.5619 61.8185 17.7416 61.7142 17.9214C58.3508 23.6803 56.6952 29.9023 57.5317 36.5857C58.9628 48.0114 64.7566 56.4045 74.9764 61.3248C81.3015 64.3702 87.9586 64.4868 94.6791 62.7771C95.631 62.5342 96.2967 62.6815 96.6952 63.3033C97.0968 63.9315 97.0526 64.5321 96.3948 65.3384C94.9099 67.1647 93.4852 69.0574 91.8581 70.7428C85.0364 77.8083 76.8059 80.9865 67.081 79.9503C66.9197 79.9212 66.7569 79.8969 66.594 79.8694C67.4068 79.1019 68.2022 78.192 68.8853 77.0895Z" fill="white"/>
<path fill-rule="evenodd" clip-rule="evenodd" d="M14.8452 52.8248C15.8335 52.8248 16.8187 52.9333 17.7817 53.1486C20.8604 45.7771 28.0457 40.8616 35.8209 40.8616C45.5236 40.8616 53.5913 47.9255 55.1979 57.7353C55.22 57.7353 55.2437 57.7353 55.2659 57.7353C61.6099 57.7353 66.7712 63.0701 66.7712 69.6273C66.7712 76.1844 61.6099 81.5175 55.2659 81.5175H14.8452C7.19344 81.5175 0.969536 75.0818 0.969536 67.1712C0.969536 59.2605 7.19344 52.8248 14.8452 52.8248ZM3.76049 67.1712C3.76049 73.4968 8.73203 78.6437 14.8452 78.6437H55.2659C60.0714 78.6437 63.9803 74.5993 63.9803 69.6273C63.9803 64.6535 60.0714 60.6092 55.2659 60.6092C54.9449 60.6092 54.5954 60.6351 54.1637 60.6885L52.7453 60.8714L52.603 59.4078C51.727 50.4723 44.5132 43.7354 35.8209 43.7354C28.7115 43.7354 22.3294 48.4015 19.9417 55.3473L19.4895 56.6571L18.2039 56.2361C17.1128 55.8783 15.9822 55.6986 14.8452 55.6986C8.73203 55.6986 3.76049 60.8439 3.76049 67.1712Z" fill="white"/>
</g>
<defs>
<clipPath id="clip0">
<rect width="98.0392" height="100" fill="white" transform="matrix(-1 0 0 1 100 0)"/>
</clipPath>
<clipPath id="clip1">
<rect width="98.0392" height="68" fill="white" transform="matrix(-1 0 0 1 98.0393 14)"/>
</clipPath>
</defs>
</svg>
