<svg width="100" height="100" viewBox="0 0 100 100" fill="none" xmlns="http://www.w3.org/2000/svg">
<g clip-path="url(#clip0)">
<rect opacity="0.0229128" x="0.5" y="0.5" width="98.0099" height="99" stroke="#2B2B2B"/>
<g clip-path="url(#clip1)">
<path fill-rule="evenodd" clip-rule="evenodd" d="M84.0972 50.74C83.0015 50.74 81.9075 50.86 80.8382 51.095C77.419 43.0233 69.4421 37.64 60.8101 37.64C50.0378 37.64 41.0807 45.375 39.2986 56.1183C39.2722 56.1183 39.2474 56.1183 39.2227 56.1183C32.1798 56.1183 26.4487 61.9617 26.4487 69.1417C26.4487 76.3217 32.1798 82.1633 39.2227 82.1633H84.0972C92.5923 82.1633 99.5032 75.115 99.5032 66.4517C99.5032 57.7883 92.5923 50.74 84.0972 50.74ZM96.4042 66.4517C96.4042 73.38 90.8827 79.015 84.0972 79.015H39.2227C33.8877 79.015 29.5477 74.5867 29.5477 69.1417C29.5477 63.6967 33.8877 59.265 39.2227 59.265C39.5791 59.265 39.9669 59.2933 40.4471 59.3533L42.0213 59.5533L42.1798 57.95C43.1517 48.165 51.1616 40.7867 60.8101 40.7867C68.7029 40.7867 75.7887 45.8967 78.4388 53.5033L78.9405 54.9383L80.3679 54.4767C81.5807 54.0867 82.8349 53.8883 84.0972 53.8883C90.8827 53.8883 96.4042 59.5233 96.4042 66.4517Z" fill="white"/>
<path fill-rule="evenodd" clip-rule="evenodd" d="M21.2771 35.2683C21.8447 35.895 22.8167 35.9383 23.4371 35.365C24.0576 34.79 24.1005 33.8083 23.5329 33.1817L14.3942 23.1017C13.8266 22.475 12.853 22.4317 12.2342 23.0067C11.6137 23.58 11.5708 24.5617 12.1385 25.1883L21.2771 35.2683Z" fill="white"/>
<path fill-rule="evenodd" clip-rule="evenodd" d="M20.5856 60.56L10.82 70.0217C10.2127 70.61 10.1913 71.5917 10.7738 72.205C11.3563 72.8183 12.3299 72.8383 12.9371 72.25L22.7028 62.79C23.3084 62.2017 23.3299 61.2183 22.7474 60.605C22.1649 59.9933 21.1913 59.9717 20.5856 60.56Z" fill="white"/>
<path fill-rule="evenodd" clip-rule="evenodd" d="M36.5048 30.8267C37.3448 30.88 38.0741 30.23 38.1269 29.3833L38.9768 15.7417C39.0296 14.8933 38.386 14.1567 37.5477 14.1033C36.7078 14.05 35.9784 14.7 35.9256 15.5483L35.0758 29.1883C35.023 30.0367 35.6665 30.7733 36.5048 30.8267Z" fill="white"/>
<path fill-rule="evenodd" clip-rule="evenodd" d="M18.0609 47.1667C18.1269 46.32 17.4932 45.5733 16.655 45.5067L3.16321 44.45C2.32493 44.3833 1.58565 45.0233 1.51965 45.87C1.45529 46.7167 2.0873 47.4633 2.92724 47.53L16.419 48.5867C17.2573 48.6533 17.9965 48.0133 18.0609 47.1667Z" fill="white"/>
<path fill-rule="evenodd" clip-rule="evenodd" d="M41.9307 36.1267C40.2046 35.1633 38.2591 34.2967 36.1666 34.14C28.3713 33.5533 21.5561 39.4833 20.9769 47.3567C20.6023 52.4433 22.929 57.1067 26.7195 59.935C27.1336 59.1933 27.6914 58.3817 28.4356 57.5833C25.4191 55.3317 23.566 51.6217 23.8647 47.5733C24.3267 41.3083 29.7492 36.59 35.9505 37.0567C37.1666 37.1483 36.8366 36.8333 37.9059 37.2783L38.3201 37.4367C38.3201 37.4367 39.6204 36.0883 41.9307 36.1267Z" fill="white"/>
<path fill-rule="evenodd" clip-rule="evenodd" d="M91.6764 46.175C91.6764 39.2383 86.1434 33.595 79.3415 33.595C78.4636 33.595 77.5873 33.69 76.7309 33.8783C73.9949 27.415 67.6071 23.1033 60.6946 23.1033C52.0708 23.1033 44.8976 29.2983 43.4702 37.9C43.4504 37.9 43.4289 37.9 43.4091 37.9C37.7705 37.9 33.1814 42.5783 33.1814 48.3283C33.1814 50.045 33.6022 51.6567 34.3266 53.0833C34.9058 52.7933 35.7177 52.5033 36.7639 52.3367C36.0758 51.16 35.6632 49.7967 35.6632 48.3283C35.6632 43.9683 39.1385 40.42 43.4091 40.42C43.6946 40.42 44.0065 40.4433 44.3893 40.4917L45.65 40.65L45.7771 39.3667C46.556 31.5333 52.9685 25.625 60.6946 25.625C67.0147 25.625 72.688 29.7167 74.8118 35.8067L75.2127 36.9567L76.3563 36.5867C77.3266 36.2733 78.3299 36.115 79.3415 36.115C84.7755 36.115 89.1962 40.6283 89.1962 46.175C89.1962 46.74 89.1418 47.2917 89.0527 47.8317C89.7342 47.9933 90.5873 48.275 91.4042 48.75C91.5758 47.9183 91.6764 47.0583 91.6764 46.175Z" fill="white"/>
</g>
</g>
<defs>
<clipPath id="clip0">
<rect width="100" height="100" fill="white"/>
</clipPath>
<clipPath id="clip1">
<rect width="99.0099" height="70" fill="white" transform="translate(0.98999 13)"/>
</clipPath>
</defs>
</svg>
