<svg width="100" height="100" viewBox="0 0 100 100" fill="none" xmlns="http://www.w3.org/2000/svg">
<rect opacity="0.0229128" x="-0.5" y="0.5" width="99" height="99" transform="matrix(-1 0 0 1 99 0)" stroke="#2B2B2B"/>
<path fill-rule="evenodd" clip-rule="evenodd" d="M68.2591 56.9285H90.6742C94.4318 56.9285 97.4879 53.5803 97.4879 49.4633C97.4879 45.3447 94.4318 41.9949 90.6742 41.9949C90.4227 41.9949 90.1485 42.0163 89.8121 42.0623L88.703 42.2134L88.5909 41.001C87.906 33.6032 82.2651 28.0241 75.4697 28.0241C69.9106 28.0241 64.9212 31.8881 63.0545 37.6381L62.7015 38.724L61.6954 38.3741C60.8424 38.08 59.9591 37.9305 59.0697 37.9305C58.8939 37.9305 58.7227 37.9469 58.5485 37.9584C58.4636 37.1912 58.3939 36.4059 58.356 35.5894C58.5924 35.573 58.8288 35.55 59.0697 35.55C59.8409 35.55 60.6121 35.6403 61.3651 35.8178C63.7727 29.7162 69.3909 25.6452 75.4697 25.6452C83.056 25.6452 89.3651 31.4938 90.6212 39.6161C90.6379 39.6161 90.656 39.6161 90.6742 39.6161C95.6348 39.6161 99.6697 44.0337 99.6697 49.4633C99.6697 54.8913 95.6348 59.309 90.6742 59.309H71.7333L71.7621 59.3024C71.7621 59.3024 70.2576 58.5878 68.2591 56.9285Z" fill="white"/>
<path fill-rule="evenodd" clip-rule="evenodd" d="M65.9909 79.0726C68.4939 79.1859 71.0545 78.9921 73.6833 78.4006C78.7697 77.2556 82.8742 74.1801 86.4212 70.1666C86.9439 69.5752 87.4394 68.9559 88.006 68.2806C75.8773 69.6639 65.7606 65.6899 58.4939 55.0754C51.2727 44.5266 50.4833 32.9099 55.047 20.7577C54.9833 20.7709 54.9045 20.7676 54.8424 20.8021C47.7985 24.625 42.5576 30.2501 39.9863 38.379C39.1591 38.1161 38.2591 37.8878 37.3485 37.7481C37.4379 37.459 37.5121 37.1731 37.6091 36.8824C41.0606 26.4798 48.356 20.0841 57.6969 16.2185C58.3227 15.9589 58.9182 16.0624 59.3591 16.644C59.7985 17.2239 59.7879 17.8564 59.4257 18.4889C59.3212 18.668 59.2197 18.8504 59.1197 19.0344C55.8969 24.878 54.3106 31.1915 55.1121 37.9732C56.4833 49.5669 62.0348 58.0834 71.8273 63.0761C77.8879 66.1663 84.2666 66.2829 90.706 64.5481C91.6182 64.3033 92.256 64.4511 92.6379 65.0836C93.0227 65.7211 92.9803 66.3289 92.35 67.1487C90.9273 69.0002 89.5621 70.9207 88.003 72.6326C81.4666 79.802 73.5803 83.0253 64.2621 81.9755C64.1076 81.9459 63.9515 81.9196 63.7954 81.8917C64.5742 81.1146 65.3363 80.1897 65.9909 79.0726Z" fill="white"/>
<path fill-rule="evenodd" clip-rule="evenodd" d="M14.2105 54.4494C15.156 54.4494 16.1015 54.5595 17.0242 54.778C19.9742 47.2997 26.859 42.3104 34.309 42.3104C43.606 42.3104 51.3363 49.4782 52.8757 59.4339C52.8969 59.4322 52.9196 59.4322 52.9408 59.4322C59.0196 59.4322 63.9651 64.8471 63.9651 71.5007C63.9651 78.1526 59.0196 83.5658 52.9408 83.5658H14.2105C6.87872 83.5658 0.913574 77.0338 0.913574 69.0068C0.913574 60.9814 6.87872 54.4494 14.2105 54.4494ZM3.58781 69.0068C3.58781 75.4271 8.35297 80.6481 14.2105 80.6481H52.9408C57.5454 80.6481 61.2908 76.5442 61.2908 71.5007C61.2908 66.4538 57.5454 62.3483 52.9408 62.3483C52.6333 62.3483 52.2984 62.3746 51.8848 62.4304L50.5257 62.6144L50.3893 61.1293C49.5499 52.064 42.6363 45.2281 34.309 45.2281C27.4969 45.2281 21.3818 49.9628 19.0939 57.0106L18.6605 58.3397L17.4287 57.9109C16.3833 57.5495 15.2999 57.3671 14.2105 57.3671C8.35297 57.3671 3.58781 62.5882 3.58781 69.0068Z" fill="white"/>
</svg>
